<?xml version="1.0" standalone="no"?>
<!DOCTYPE svg PUBLIC "-//W3C//DTD SVG 20010904//EN"
 "http://www.w3.org/TR/2001/REC-SVG-20010904/DTD/svg10.dtd">
<svg version="1.0" xmlns="http://www.w3.org/2000/svg"
 width="721.000000pt" height="721.000000pt" viewBox="0 0 721.000000 721.000000"
 preserveAspectRatio="xMidYMid meet">
<metadata>
Created by potrace 1.14, written by Peter Selinger 2001-2017
</metadata>
<g transform="translate(0.000000,721.000000) scale(0.100000,-0.100000)"
fill="#000000" stroke="none">
<path d="M1082 7185 c-10 -16 -9 -3579 1 -3586 5 -4 9 -765 9 -1803 l1 -1796
906 0 906 0 0 1560 c0 858 3 1560 7 1560 5 0 8 -7 8 -16 0 -8 5 -12 10 -9 6 4
10 -5 10 -19 0 -14 5 -26 12 -26 6 0 8 -3 5 -7 -4 -3 0 -17 8 -30 9 -13 13
-27 10 -32 -2 -5 1 -11 9 -14 8 -3 13 -14 12 -24 -2 -9 5 -26 16 -37 10 -11
18 -28 18 -38 0 -10 5 -18 10 -18 6 0 10 -9 10 -19 0 -11 4 -22 10 -26 5 -3 7
-12 4 -19 -3 -7 2 -16 11 -20 9 -3 14 -10 11 -15 -8 -12 39 -102 49 -93 4 4 5
-3 2 -16 -3 -15 0 -25 8 -28 7 -3 12 -14 10 -25 -2 -11 0 -17 6 -14 5 4 9 -5
9 -19 0 -14 5 -26 10 -26 6 0 10 -9 10 -20 0 -11 5 -20 10 -20 6 0 10 -12 10
-26 0 -14 4 -23 9 -20 8 5 26 -40 23 -56 -1 -5 3 -8 8 -8 6 0 10 -9 10 -19 0
-11 5 -23 10 -26 6 -3 10 -15 10 -26 0 -10 5 -19 10 -19 6 0 10 -8 10 -18 0
-10 8 -27 18 -38 11 -11 18 -27 16 -37 -1 -9 2 -17 7 -17 5 0 9 -9 9 -19 0
-11 5 -23 10 -26 6 -3 10 -15 10 -26 0 -10 5 -19 10 -19 6 0 10 -9 10 -20 0
-11 5 -20 11 -20 6 0 9 -9 6 -20 -3 -13 0 -20 9 -20 8 0 11 -6 8 -15 -4 -8 -2
-15 2 -15 5 0 15 -15 22 -32 7 -18 21 -49 29 -68 9 -19 16 -40 15 -46 -1 -6 7
-19 18 -29 11 -10 20 -29 20 -42 0 -14 4 -21 10 -18 6 4 10 -5 10 -19 0 -14 4
-26 9 -26 7 0 21 -44 20 -65 0 -3 7 -12 15 -21 8 -8 12 -22 9 -31 -4 -11 -3
-14 5 -9 8 5 12 0 12 -14 0 -12 5 -18 10 -15 6 4 10 -5 10 -19 0 -14 5 -26 11
-26 6 0 8 -7 5 -15 -3 -9 1 -18 9 -22 10 -3 13 -12 10 -24 -4 -11 -2 -19 4
-19 6 0 11 -9 11 -20 0 -11 5 -20 10 -20 6 0 10 -7 10 -15 0 -8 5 -15 10 -15
6 0 10 -9 10 -20 0 -11 5 -20 10 -20 6 0 10 -11 10 -25 0 -14 4 -25 9 -25 5 0
8 -8 7 -17 -2 -10 3 -24 11 -31 7 -8 11 -18 8 -23 -4 -5 -1 -9 4 -9 6 0 11 -9
11 -20 0 -11 5 -20 10 -20 6 0 10 -7 10 -15 0 -8 5 -15 11 -15 5 0 8 -4 4 -9
-3 -5 1 -15 8 -23 8 -7 13 -21 11 -31 -1 -9 2 -17 7 -17 5 0 9 -11 9 -25 0
-14 5 -25 10 -25 6 0 10 -9 10 -20 0 -11 5 -20 10 -20 6 0 10 -9 10 -20 0 -11
3 -20 8 -20 10 0 32 -51 26 -61 -3 -5 0 -9 5 -9 6 0 11 -9 11 -20 0 -11 5 -20
10 -20 6 0 10 -8 10 -18 0 -10 3 -22 7 -26 4 -3 8 -14 9 -24 2 -9 8 -18 13
-20 6 -2 11 -10 11 -18 0 -8 4 -14 10 -14 5 0 7 -6 4 -14 -3 -8 -1 -17 5 -21
6 -3 11 -15 11 -26 0 -10 5 -19 10 -19 6 0 10 -9 10 -20 0 -11 5 -20 11 -20 7
0 9 -9 6 -21 -3 -12 0 -22 9 -26 8 -3 13 -11 10 -18 -2 -7 4 -22 15 -33 10
-12 19 -28 19 -36 0 -8 5 -18 10 -21 6 -3 10 -15 10 -26 0 -10 5 -19 10 -19 6
0 10 -9 10 -20 0 -11 4 -20 9 -20 6 0 8 -9 6 -20 -2 -11 0 -20 6 -20 5 0 9 -7
9 -15 0 -8 6 -15 14 -15 9 0 12 -7 9 -20 -3 -11 0 -20 6 -20 6 0 11 -9 11 -21
0 -37 27 -52 93 -51 34 0 66 -3 72 -8 5 -4 71 -8 145 -7 74 0 148 -3 165 -7
16 -4 89 -8 162 -8 73 0 133 -3 133 -7 0 -3 39 -6 86 -6 47 0 88 -3 90 -7 3
-4 40 -8 83 -8 43 0 81 -3 85 -7 4 -4 42 -9 84 -11 42 -2 109 -4 147 -6 39 -2
86 -7 105 -11 19 -5 63 -8 98 -8 34 1 62 -2 62 -6 0 -4 41 -6 90 -6 50 0 90
-3 90 -7 0 -4 25 -8 55 -8 l55 0 0 1840 c0 1080 -4 1840 -9 1840 -5 0 -9 718
-9 1738 -1 955 -1 1746 -1 1757 -1 20 -7 20 -903 20 l-903 0 -3 -1583 c-1
-1049 -5 -1581 -12 -1577 -6 3 -10 15 -10 26 0 10 -5 19 -11 19 -6 0 -9 7 -6
15 4 8 2 17 -3 20 -6 4 -10 15 -10 26 0 10 -4 19 -10 19 -5 0 -10 7 -10 15 0
8 -4 15 -10 15 -5 0 -10 9 -10 20 0 11 -5 20 -12 20 -6 0 -8 3 -5 7 4 3 0 17
-8 30 -9 13 -13 28 -10 33 3 6 1 10 -4 10 -6 0 -11 9 -11 20 0 11 -4 20 -10
20 -5 0 -10 9 -10 20 0 11 -4 20 -10 20 -5 0 -10 6 -10 13 0 18 -23 67 -32 67
-4 0 -5 6 -2 14 3 8 1 17 -5 21 -6 3 -11 15 -11 26 0 10 -4 19 -10 19 -5 0
-10 7 -10 16 0 9 -8 28 -19 42 -10 15 -17 35 -16 44 2 10 -2 16 -8 15 -6 -1
-11 5 -12 13 0 8 -6 25 -12 36 -7 12 -9 24 -6 28 3 3 1 6 -5 6 -7 0 -12 7 -12
15 0 8 -9 30 -19 49 -11 19 -17 37 -14 40 4 3 1 6 -5 6 -7 0 -12 12 -12 26 0
14 -4 23 -10 19 -6 -3 -10 3 -10 14 0 11 -4 23 -10 26 -5 3 -10 15 -10 26 0
10 -4 19 -10 19 -5 0 -10 7 -10 15 0 8 -9 29 -19 47 -11 17 -18 35 -15 40 3 4
0 8 -5 8 -6 0 -11 9 -11 20 0 11 -4 20 -8 20 -4 0 -14 20 -21 45 -7 25 -17 45
-22 45 -4 0 -6 9 -4 20 2 11 0 20 -6 20 -5 0 -9 7 -9 15 0 8 -4 15 -10 15 -5
0 -10 9 -10 20 0 11 -4 20 -10 20 -5 0 -10 12 -10 26 0 14 -4 23 -10 19 -6 -4
-10 5 -10 19 0 14 -5 26 -10 26 -6 0 -9 3 -8 8 3 13 -14 56 -34 84 -11 16 -17
32 -13 37 3 6 -1 13 -8 18 -8 4 -16 17 -20 28 -13 46 -33 93 -50 118 -9 14
-17 33 -17 42 0 8 -5 15 -11 15 -5 0 -8 4 -4 9 3 5 -2 16 -10 24 -8 9 -12 23
-9 31 4 10 1 16 -9 16 -10 0 -13 7 -10 20 3 11 0 20 -6 20 -6 0 -11 7 -11 16
0 9 -9 29 -20 44 -11 16 -20 32 -19 37 2 15 -13 53 -22 53 -5 0 -9 11 -9 25 0
14 -4 25 -10 25 -5 0 -10 9 -10 20 0 11 -4 20 -10 20 -5 0 -10 15 -10 34 0 19
-5 38 -10 41 -6 4 -8 10 -5 15 3 5 1 11 -5 15 -5 3 -10 15 -10 26 0 10 -4 19
-10 19 -5 0 -10 7 -10 15 0 8 -4 15 -10 15 -5 0 -10 9 -10 19 0 11 -5 23 -11
27 -6 3 -9 14 -6 24 3 11 -2 21 -10 24 -8 3 -12 10 -8 15 3 5 1 12 -5 16 -5 3
-10 15 -10 26 0 10 -4 19 -10 19 -5 0 -10 7 -10 15 0 8 -4 15 -10 15 -5 0 -10
9 -10 20 0 11 -5 20 -11 20 -6 0 -9 7 -5 15 3 8 -2 21 -10 30 -8 8 -12 19 -9
25 3 5 1 10 -4 10 -6 0 -11 9 -11 19 0 11 -4 23 -10 26 -5 3 -10 14 -10 24 0
9 -8 26 -17 37 -10 11 -19 26 -21 34 -2 8 -8 18 -14 21 -5 3 -9 9 -9 13 2 16
-13 67 -20 72 -5 3 -9 14 -9 25 0 10 -4 19 -10 19 -5 0 -10 7 -10 15 0 8 -5
15 -11 15 -6 0 -9 9 -6 20 3 13 0 20 -8 20 -7 0 -12 8 -11 18 2 9 -10 30 -26
45 -16 16 -27 34 -25 40 2 7 -2 18 -10 25 -7 8 -11 18 -8 23 4 5 1 9 -4 9 -6
0 -11 7 -11 15 0 8 -3 16 -7 16 -5 1 -410 2 -901 3 -589 1 -896 -2 -900 -9z"/>
</g>
</svg>
